<!--?xml version="1.0" encoding="UTF-8" standalone="no"?--><svg width="100%" height="100%" viewBox="0 0 2500 2500" version="1.1" xmlns="http://www.w3.org/2000/svg" xmlns:xlink="http://www.w3.org/1999/xlink" xml:space="preserve" xmlns:serif="http://www.serif.com/" style="fill-rule: evenodd; clip-rule: evenodd; stroke-linejoin: round; stroke-miterlimit: 2;"><g id="Light"><path id="TopLeft-Wave" serif:id="TopLeft Wave" d="M1106.52,608.501c-4.47,-2.587 -3.828,-21.254 22.356,-25.494c10.978,-1.778 12.889,-21.704 0.994,-29.568c-11.108,-7.344 -28.676,-5.024 -28.676,-5.024c0,0 -2.745,-8.527 4.06,-20.445c6.136,-10.745 17.198,-24.811 94.732,-27.987c61.904,-2.535 70.076,-35.568 75.392,-50.182c8.727,-23.992 -16.251,-33.071 -16.251,-33.071c-29.852,-3.276 -52.748,8.524 -66.382,40.396c-15.489,-49.748 40.417,-133.971 66.755,-154.558c58.46,-45.696 136.451,-47.943 172.706,-33.149c6.978,2.848 -2.031,5.478 -2.031,5.478c-21.042,11.586 -39.807,28.941 -49.878,48.107c-14.633,27.847 -14.035,85.391 -7.388,98.092c0,0 45.257,56.549 64.588,55.494c23.699,-1.294 38.966,-7.358 40.217,-27.891c1.261,-20.696 4.502,-56.562 4.502,-56.562c1.372,-2.978 36.273,0.483 53.615,23.413c22.029,29.125 39.731,72.804 23.35,86.668l-31.901,-3.103c-15.475,22.846 20.723,30.838 30.844,40.533c9.161,8.775 10.322,29.982 15.887,33.463c8.703,5.443 31.442,4.656 45.27,-0.76c14.448,-3.918 36.158,-25.096 27.398,-58.257c-4.968,-18.803 -31.603,8.155 -31.49,9.811c-5.007,-9.589 -1.273,-26.603 -0.006,-37.48c2.598,-22.293 18.46,-39.676 27.761,-48.071c24.396,-22.022 68.051,-7.896 75.241,2.597c71.461,-65.382 118.327,-44.064 131.005,-37.621c21.514,10.933 38.729,39.481 41.063,62.455c4.573,45.019 -10.546,80.371 -33.684,85.529c1.556,-18.052 -15.827,-38.002 -30.083,-42.168c-20.439,-5.972 -44.05,-0.326 -57.937,12.654c-18.639,17.422 -32.401,36.219 -35.548,54.806c-3.834,22.651 3.907,43.086 16.966,43.826c12.439,0.706 22.84,-1.822 25.048,-20.18l0.693,-23.552c18.482,4.476 27.828,12.759 28.101,26.785c0.349,17.954 0.538,35.722 -1.226,47.007c-2.436,15.581 -11.613,32.05 -10.067,41.402c20.936,4.979 32.552,15.591 30.143,47.1c3.366,5.887 14.781,1.243 24.544,-3.424c47.546,-22.731 90.723,33.739 86.804,75.027c-1.137,11.98 -20.758,-14.47 -36.22,-14.486c-25.804,-0.027 -26.527,21.596 -27.456,35.05c-0.691,10.005 17.221,32.597 27.618,47.769c10.597,15.465 32.542,34.748 35.964,45.019c12.632,37.91 -15.093,70.234 -16.369,62.403c-2.579,-15.834 -3.017,-17.194 -6.715,-22.403c-3.439,-4.845 -10.37,-9.423 -15.47,-8.852c-8.086,0.906 -10.819,11.957 -11.806,17.973c-2.193,13.36 31.798,49.688 58.064,48.295c10.536,-0.559 67.251,2.55 82.297,50.032c4.593,14.492 4.005,54.488 -0.594,60.021c-4.599,5.532 -14.693,-25.37 -27.001,-26.827c-22.064,-2.613 -39.389,22.437 -43.879,39.028c-11.008,40.685 4.704,58.927 15.47,65.475c10.766,6.548 43.153,10.475 49.126,-26.188c2.536,-15.569 14.032,4.393 16.887,28.469c2.837,23.916 -20.327,66.151 -45.919,80.874c-20.17,11.605 -50.264,23.37 -63.73,27.848c-0.826,0.275 0.9,-60.453 0.505,-84.88c-0.332,-20.58 0.011,-41.301 -2.873,-61.681c-3.258,-23.021 -9.283,-51.432 -16.675,-76.443c-8.188,-27.704 -19.824,-60.575 -32.454,-89.784c-13.56,-31.362 -30.314,-68.37 -48.908,-98.385c-18.074,-29.176 -39.576,-56.301 -62.655,-81.704c-26.445,-29.108 -60.452,-66.123 -96.016,-92.945c-37.518,-28.296 -83.404,-56.333 -129.092,-76.829c-46.133,-20.696 -107.84,-37.292 -147.709,-47.35c-29.873,-7.535 -60.95,-9.066 -91.507,-12.996c-47.6,-6.121 -190.866,6.721 -190.37,11.401Z" style="fill:none;stroke:#fff;stroke-width:10.42px;" class="pasCHcGE_0"></path><path id="BottomLeft-Wave" serif:id="BottomLeft Wave" d="M1411.86,1893.97c4.552,2.44 4.522,21.118 -21.509,26.213c-10.914,2.136 -12.172,22.114 -0.026,29.585c11.343,6.976 28.825,4.082 28.825,4.082c0,0 3.024,8.432 -3.388,20.566c-5.78,10.941 -16.376,25.361 -93.764,31.075c-61.788,4.561 -68.874,37.844 -73.709,52.624c-7.936,24.265 17.325,32.521 17.325,32.521c29.944,2.297 52.441,-10.247 65.024,-42.549c17.11,49.215 -36.009,135.224 -61.658,156.662c-56.932,47.585 -134.808,52.385 -171.528,38.786c-7.068,-2.617 1.851,-5.541 1.851,-5.541c20.651,-12.269 38.838,-30.23 48.276,-49.714c13.713,-28.311 11.231,-85.805 4.171,-98.282c0,0 -47.084,-55.037 -66.37,-53.349c-23.644,2.069 -38.704,8.63 -39.282,29.193c-0.583,20.726 -2.647,56.679 -2.647,56.679c-1.274,3.021 -36.27,0.705 -54.354,-21.644c-22.971,-28.389 -42.093,-71.465 -26.175,-85.858l31.986,2.057c14.718,-23.341 -21.722,-30.143 -32.155,-39.502c-9.444,-8.47 -11.298,-29.628 -16.974,-32.924c-8.877,-5.155 -31.579,-3.624 -45.221,2.241c-14.313,4.389 -35.317,26.267 -25.475,59.123c5.58,18.631 31.318,-9.184 31.15,-10.837c5.319,9.421 2.145,26.548 1.234,37.461c-1.867,22.366 -17.15,40.258 -26.171,48.954c-23.662,22.809 -67.756,10.12 -75.286,-0.132c-69.282,67.688 -116.821,47.915 -129.704,41.891c-21.859,-10.223 -40.001,-38.192 -43.085,-61.077c-6.045,-44.845 7.908,-80.673 30.865,-86.586c-0.964,18.093 17.063,37.463 31.448,41.16c20.623,5.3 44.037,-1.117 57.491,-14.545c18.058,-18.022 31.198,-37.26 33.734,-55.94c3.091,-22.765 -5.316,-42.935 -18.392,-43.247c-12.455,-0.298 -22.767,2.568 -24.374,20.99l0.079,23.561c-18.619,-3.868 -28.231,-11.841 -28.963,-25.85c-0.936,-17.933 -1.708,-35.686 -0.314,-47.022c1.924,-15.652 10.557,-32.413 8.707,-41.71c-21.089,-4.291 -33.046,-14.516 -31.67,-46.087c-3.557,-5.773 -14.814,-0.759 -24.419,4.226c-46.776,24.276 -91.779,-30.75 -89.214,-72.144c0.745,-12.011 21.221,13.783 36.675,13.292c25.791,-0.818 25.806,-22.454 26.294,-35.931c0.363,-10.022 -18.28,-32.015 -29.168,-46.839c-11.098,-15.109 -33.662,-33.663 -37.419,-43.816c-13.867,-37.477 12.785,-70.691 14.317,-62.906c3.096,15.741 3.579,17.086 7.445,22.171c3.596,4.73 10.673,9.079 15.752,8.34c8.052,-1.17 10.421,-12.305 11.211,-18.349c1.754,-13.426 -33.409,-48.621 -59.615,-46.368c-10.512,0.903 -67.298,-0.346 -83.891,-47.31c-5.065,-14.334 -5.787,-54.328 -1.372,-60.008c4.416,-5.681 15.516,24.874 27.865,25.928c22.138,1.889 38.634,-23.715 42.577,-40.445c9.671,-41.023 -6.631,-58.741 -17.605,-64.933c-10.975,-6.191 -43.473,-9.056 -48.242,27.783c-2.025,15.644 -14.168,-3.931 -17.81,-27.9c-3.618,-23.811 18.149,-66.782 43.246,-82.335c19.779,-12.259 49.472,-25.003 62.784,-29.92c0.817,-0.302 1.08,60.45 2.274,84.851c1.007,20.558 1.341,41.28 4.892,61.554c4.01,22.902 10.962,51.101 19.169,75.856c9.091,27.421 21.797,59.893 35.376,88.673c14.58,30.901 32.537,67.341 52.104,96.73c19.02,28.569 41.399,54.976 65.297,79.609c27.384,28.227 62.584,64.109 99.008,89.752c38.424,27.051 85.204,53.57 131.538,72.56c46.787,19.174 109.004,33.741 149.181,42.487c30.103,6.554 61.215,7.066 91.883,9.993c47.775,4.559 190.544,-12.967 189.895,-17.629Z" style="fill:none;stroke:#fff;stroke-width:10.42px;stroke-linecap:round;stroke-miterlimit:1.5;" class="pasCHcGE_1"></path><g id="Middle-Zelda" serif:id="Middle Zelda"><path d="M1248.5,803.073l435.104,700.696l-870.208,0l435.104,-700.696Zm0,672.087l189.275,-310.124l-378.55,0l189.275,310.124Z" style="fill:none;stroke:#fff;stroke-width:10.42px;" class="pasCHcGE_2"></path></g><g id="Side-Cluster-1" serif:id="Side Cluster 1"><path style="fill:none;stroke:#fff;stroke-width:10.42px;" d="M823.958,1051.39A57.243,56.112 0,1,1 938.4440000000001,1051.39A57.243,56.112 0,1,1 823.958,1051.39" class="pasCHcGE_3"></path><path style="fill:none;stroke:#fff;stroke-width:10.42px;" d="M909.563,949.51A24.991,25.763 0,1,1 959.545,949.51A24.991,25.763 0,1,1 909.563,949.51" class="pasCHcGE_4"></path><path style="fill:none;stroke:#fff;stroke-width:10.42px;" d="M801.938,1154.59A24.991,25.763 0,1,1 851.92,1154.59A24.991,25.763 0,1,1 801.938,1154.59" class="pasCHcGE_5"></path><path style="fill:none;stroke:#fff;stroke-width:10.42px;" d="M964.56,868.317A14.812,15.27 0,1,1 994.184,868.317A14.812,15.27 0,1,1 964.56,868.317" class="pasCHcGE_6"></path><path style="fill:none;stroke:#fff;stroke-width:10.42px;" d="M763.716,1235.04A14.812,15.27 0,1,1 793.34,1235.04A14.812,15.27 0,1,1 763.716,1235.04" class="pasCHcGE_7"></path></g><g id="Side-Cluster-3" serif:id="Side Cluster 3"><path d="M1299.08,1652.55c15.159,27.719 5.407,62.288 -21.765,77.147c-27.171,14.859 -61.538,4.419 -76.697,-23.301c-15.159,-27.719 -5.406,-62.287 21.765,-77.146c27.172,-14.86 61.538,-4.419 76.697,23.3Z" style="fill:none;stroke:#fff;stroke-width:10.42px;" class="pasCHcGE_8"></path><path d="M1382.1,1680.55c6.617,12.102 1.862,27.466 -10.614,34.288c-12.475,6.823 -27.977,2.537 -34.595,-9.564c-6.617,-12.102 -1.862,-27.465 10.614,-34.288c12.475,-6.823 27.977,-2.537 34.595,9.564Z" style="fill:none;stroke:#fff;stroke-width:10.42px;" class="pasCHcGE_9"></path><path d="M1153.89,1679.52c6.618,12.101 1.862,27.465 -10.614,34.288c-12.475,6.822 -27.976,2.536 -34.594,-9.565c-6.618,-12.101 -1.863,-27.465 10.613,-34.288c12.475,-6.822 27.977,-2.536 34.595,9.565Z" style="fill:none;stroke:#fff;stroke-width:10.42px;" class="pasCHcGE_10"></path><path d="M1458.99,1685.53c3.922,7.173 1.104,16.279 -6.29,20.323c-7.395,4.043 -16.582,1.503 -20.505,-5.669c-3.922,-7.173 -1.104,-16.279 6.291,-20.323c7.394,-4.043 16.582,-1.503 20.504,5.669Z" style="fill:none;stroke:#fff;stroke-width:10.42px;" class="pasCHcGE_11"></path><path d="M1063.62,1688c3.923,7.172 1.104,16.278 -6.29,20.322c-7.395,4.044 -16.582,1.504 -20.505,-5.669c-3.922,-7.172 -1.104,-16.278 6.291,-20.322c7.394,-4.044 16.582,-1.504 20.504,5.669Z" style="fill:none;stroke:#fff;stroke-width:10.42px;" class="pasCHcGE_12"></path></g><g id="Side-Cluster-2" serif:id="Side Cluster 2"><path d="M1570.05,1030.1c16.411,-26.998 51.219,-35.856 77.683,-19.77c26.463,16.086 34.625,51.064 18.214,78.061c-16.41,26.998 -51.218,35.856 -77.682,19.77c-26.463,-16.086 -34.625,-51.064 -18.215,-78.061Z" style="fill:none;stroke:#fff;stroke-width:10.42px;" class="pasCHcGE_13"></path><path d="M1540.28,941.115c7.165,-11.786 22.846,-15.359 34.996,-7.973c12.151,7.386 16.199,22.951 9.035,34.737c-7.165,11.786 -22.846,15.359 -34.996,7.973c-12.151,-7.386 -16.199,-22.951 -9.035,-34.737Z" style="fill:none;stroke:#fff;stroke-width:10.42px;" class="pasCHcGE_14"></path><path d="M1658.23,1147.65c7.164,-11.786 22.846,-15.359 34.996,-7.973c12.151,7.386 16.199,22.951 9.034,34.737c-7.164,11.786 -22.845,15.358 -34.995,7.973c-12.151,-7.386 -16.199,-22.951 -9.035,-34.737Z" style="fill:none;stroke:#fff;stroke-width:10.42px;" class="pasCHcGE_15"></path><path d="M1511.77,879.338c4.246,-6.985 13.54,-9.103 20.742,-4.725c7.202,4.378 9.601,13.603 5.355,20.589c-4.247,6.985 -13.541,9.103 -20.743,4.725c-7.201,-4.378 -9.601,-13.603 -5.354,-20.589Z" style="fill:none;stroke:#fff;stroke-width:10.42px;" class="pasCHcGE_16"></path><path d="M1710.32,1225.2c4.246,-6.985 13.54,-9.103 20.742,-4.725c7.202,4.378 9.601,13.603 5.355,20.589c-4.247,6.985 -13.541,9.103 -20.743,4.725c-7.201,-4.378 -9.601,-13.603 -5.354,-20.589Z" style="fill:none;stroke:#fff;stroke-width:10.42px;" class="pasCHcGE_17"></path></g><g id="Top-Cluster" serif:id="Top Cluster"><path d="M582.101,1143.37l10.947,-72.598l-308.759,-6.479l297.812,79.077Z" style="fill:none;stroke:#fff;stroke-width:10.42px;stroke-linecap:round;stroke-miterlimit:1.5;" class="pasCHcGE_18"></path><path d="M744.642,809.379l-86.698,111.397l-543.037,-440.119l629.735,328.722Z" style="fill:none;stroke:#fff;stroke-width:10.42px;stroke-linecap:round;stroke-miterlimit:1.5;" class="pasCHcGE_19"></path><path d="M828.801,733.731l68.056,-46.039l-171.867,-128.461l103.811,174.5Z" style="fill:none;stroke:#fff;stroke-width:10.42px;stroke-linecap:round;stroke-miterlimit:1.5;" class="pasCHcGE_20"></path><path d="M977.888,644.498l44.443,-20.363l-284.945,-518.246l240.502,538.609Z" style="fill:none;stroke:#fff;stroke-width:10.42px;stroke-linecap:round;stroke-miterlimit:1.5;" class="pasCHcGE_21"></path></g><g id="Bottom-Cluster" serif:id="Bottom Cluster"><path d="M1910.69,1355l-10.153,72.714l308.811,3.105l-298.658,-75.819Z" style="fill:none;stroke:#fff;stroke-width:10.42px;stroke-linecap:round;stroke-miterlimit:1.5;" class="pasCHcGE_22"></path><path d="M1751.81,1690.74l85.477,-112.337l547.811,434.162l-633.288,-321.825Z" style="fill:none;stroke:#fff;stroke-width:10.42px;stroke-linecap:round;stroke-miterlimit:1.5;" class="pasCHcGE_23"></path><path d="M1668.48,1767.31l-67.548,46.779l173.259,126.576l-105.711,-173.355Z" style="fill:none;stroke:#fff;stroke-width:10.42px;stroke-linecap:round;stroke-miterlimit:1.5;" class="pasCHcGE_24"></path><path d="M1520.37,1858.16l-44.218,20.848l290.588,515.103l-246.37,-535.951Z" style="fill:none;stroke:#fff;stroke-width:10.42px;stroke-linecap:round;stroke-miterlimit:1.5;" class="pasCHcGE_25"></path></g></g><style data-made-with="vivus-instant">.pasCHcGE_0{stroke-dasharray:5086 5088;stroke-dashoffset:5087;animation:pasCHcGE_draw_0 5700ms linear 0ms infinite,pasCHcGE_fade 5700ms linear 0ms infinite;}.pasCHcGE_1{stroke-dasharray:5086 5088;stroke-dashoffset:5087;animation:pasCHcGE_draw_1 5700ms linear 0ms infinite,pasCHcGE_fade 5700ms linear 0ms infinite;}.pasCHcGE_2{stroke-dasharray:3625 3627;stroke-dashoffset:3626;animation:pasCHcGE_draw_2 5700ms linear 0ms infinite,pasCHcGE_fade 5700ms linear 0ms infinite;}.pasCHcGE_3{stroke-dasharray:357 359;stroke-dashoffset:358;animation:pasCHcGE_draw_3 5700ms linear 0ms infinite,pasCHcGE_fade 5700ms linear 0ms infinite;}.pasCHcGE_4{stroke-dasharray:160 162;stroke-dashoffset:161;animation:pasCHcGE_draw_4 5700ms linear 0ms infinite,pasCHcGE_fade 5700ms linear 0ms infinite;}.pasCHcGE_5{stroke-dasharray:160 162;stroke-dashoffset:161;animation:pasCHcGE_draw_5 5700ms linear 0ms infinite,pasCHcGE_fade 5700ms linear 0ms infinite;}.pasCHcGE_6{stroke-dasharray:95 97;stroke-dashoffset:96;animation:pasCHcGE_draw_6 5700ms linear 0ms infinite,pasCHcGE_fade 5700ms linear 0ms infinite;}.pasCHcGE_7{stroke-dasharray:95 97;stroke-dashoffset:96;animation:pasCHcGE_draw_7 5700ms linear 0ms infinite,pasCHcGE_fade 5700ms linear 0ms infinite;}.pasCHcGE_8{stroke-dasharray:357 359;stroke-dashoffset:358;animation:pasCHcGE_draw_8 5700ms linear 0ms infinite,pasCHcGE_fade 5700ms linear 0ms infinite;}.pasCHcGE_9{stroke-dasharray:160 162;stroke-dashoffset:161;animation:pasCHcGE_draw_9 5700ms linear 0ms infinite,pasCHcGE_fade 5700ms linear 0ms infinite;}.pasCHcGE_10{stroke-dasharray:160 162;stroke-dashoffset:161;animation:pasCHcGE_draw_10 5700ms linear 0ms infinite,pasCHcGE_fade 5700ms linear 0ms infinite;}.pasCHcGE_11{stroke-dasharray:95 97;stroke-dashoffset:96;animation:pasCHcGE_draw_11 5700ms linear 0ms infinite,pasCHcGE_fade 5700ms linear 0ms infinite;}.pasCHcGE_12{stroke-dasharray:95 97;stroke-dashoffset:96;animation:pasCHcGE_draw_12 5700ms linear 0ms infinite,pasCHcGE_fade 5700ms linear 0ms infinite;}.pasCHcGE_13{stroke-dasharray:357 359;stroke-dashoffset:358;animation:pasCHcGE_draw_13 5700ms linear 0ms infinite,pasCHcGE_fade 5700ms linear 0ms infinite;}.pasCHcGE_14{stroke-dasharray:160 162;stroke-dashoffset:161;animation:pasCHcGE_draw_14 5700ms linear 0ms infinite,pasCHcGE_fade 5700ms linear 0ms infinite;}.pasCHcGE_15{stroke-dasharray:160 162;stroke-dashoffset:161;animation:pasCHcGE_draw_15 5700ms linear 0ms infinite,pasCHcGE_fade 5700ms linear 0ms infinite;}.pasCHcGE_16{stroke-dasharray:95 97;stroke-dashoffset:96;animation:pasCHcGE_draw_16 5700ms linear 0ms infinite,pasCHcGE_fade 5700ms linear 0ms infinite;}.pasCHcGE_17{stroke-dasharray:95 97;stroke-dashoffset:96;animation:pasCHcGE_draw_17 5700ms linear 0ms infinite,pasCHcGE_fade 5700ms linear 0ms infinite;}.pasCHcGE_18{stroke-dasharray:691 693;stroke-dashoffset:692;animation:pasCHcGE_draw_18 5700ms linear 0ms infinite,pasCHcGE_fade 5700ms linear 0ms infinite;}.pasCHcGE_19{stroke-dasharray:1551 1553;stroke-dashoffset:1552;animation:pasCHcGE_draw_19 5700ms linear 0ms infinite,pasCHcGE_fade 5700ms linear 0ms infinite;}.pasCHcGE_20{stroke-dasharray:500 502;stroke-dashoffset:501;animation:pasCHcGE_draw_20 5700ms linear 0ms infinite,pasCHcGE_fade 5700ms linear 0ms infinite;}.pasCHcGE_21{stroke-dasharray:1231 1233;stroke-dashoffset:1232;animation:pasCHcGE_draw_21 5700ms linear 0ms infinite,pasCHcGE_fade 5700ms linear 0ms infinite;}.pasCHcGE_22{stroke-dasharray:691 693;stroke-dashoffset:692;animation:pasCHcGE_draw_22 5700ms linear 0ms infinite,pasCHcGE_fade 5700ms linear 0ms infinite;}.pasCHcGE_23{stroke-dasharray:1551 1553;stroke-dashoffset:1552;animation:pasCHcGE_draw_23 5700ms linear 0ms infinite,pasCHcGE_fade 5700ms linear 0ms infinite;}.pasCHcGE_24{stroke-dasharray:500 502;stroke-dashoffset:501;animation:pasCHcGE_draw_24 5700ms linear 0ms infinite,pasCHcGE_fade 5700ms linear 0ms infinite;}.pasCHcGE_25{stroke-dasharray:1231 1233;stroke-dashoffset:1232;animation:pasCHcGE_draw_25 5700ms linear 0ms infinite,pasCHcGE_fade 5700ms linear 0ms infinite;}@keyframes pasCHcGE_draw{100%{stroke-dashoffset:0;}}@keyframes pasCHcGE_fade{0%{stroke-opacity:1;}92.98245614035088%{stroke-opacity:1;}100%{stroke-opacity:0;}}@keyframes pasCHcGE_draw_0{14.035087719298245%{stroke-dashoffset: 5087}66.66666666666666%{ stroke-dashoffset: 0;}100%{ stroke-dashoffset: 0;}}@keyframes pasCHcGE_draw_1{14.035087719298245%{stroke-dashoffset: 5087}66.66666666666666%{ stroke-dashoffset: 0;}100%{ stroke-dashoffset: 0;}}@keyframes pasCHcGE_draw_2{14.035087719298245%{stroke-dashoffset: 3626}66.66666666666666%{ stroke-dashoffset: 0;}100%{ stroke-dashoffset: 0;}}@keyframes pasCHcGE_draw_3{14.035087719298245%{stroke-dashoffset: 358}66.66666666666666%{ stroke-dashoffset: 0;}100%{ stroke-dashoffset: 0;}}@keyframes pasCHcGE_draw_4{14.035087719298245%{stroke-dashoffset: 161}66.66666666666666%{ stroke-dashoffset: 0;}100%{ stroke-dashoffset: 0;}}@keyframes pasCHcGE_draw_5{14.035087719298245%{stroke-dashoffset: 161}66.66666666666666%{ stroke-dashoffset: 0;}100%{ stroke-dashoffset: 0;}}@keyframes pasCHcGE_draw_6{14.035087719298245%{stroke-dashoffset: 96}66.66666666666666%{ stroke-dashoffset: 0;}100%{ stroke-dashoffset: 0;}}@keyframes pasCHcGE_draw_7{14.035087719298245%{stroke-dashoffset: 96}66.66666666666666%{ stroke-dashoffset: 0;}100%{ stroke-dashoffset: 0;}}@keyframes pasCHcGE_draw_8{14.035087719298245%{stroke-dashoffset: 358}66.66666666666666%{ stroke-dashoffset: 0;}100%{ stroke-dashoffset: 0;}}@keyframes pasCHcGE_draw_9{14.035087719298245%{stroke-dashoffset: 161}66.66666666666666%{ stroke-dashoffset: 0;}100%{ stroke-dashoffset: 0;}}@keyframes pasCHcGE_draw_10{14.035087719298245%{stroke-dashoffset: 161}66.66666666666666%{ stroke-dashoffset: 0;}100%{ stroke-dashoffset: 0;}}@keyframes pasCHcGE_draw_11{14.035087719298245%{stroke-dashoffset: 96}66.66666666666666%{ stroke-dashoffset: 0;}100%{ stroke-dashoffset: 0;}}@keyframes pasCHcGE_draw_12{14.035087719298245%{stroke-dashoffset: 96}66.66666666666666%{ stroke-dashoffset: 0;}100%{ stroke-dashoffset: 0;}}@keyframes pasCHcGE_draw_13{14.035087719298245%{stroke-dashoffset: 358}66.66666666666666%{ stroke-dashoffset: 0;}100%{ stroke-dashoffset: 0;}}@keyframes pasCHcGE_draw_14{14.035087719298245%{stroke-dashoffset: 161}66.66666666666666%{ stroke-dashoffset: 0;}100%{ stroke-dashoffset: 0;}}@keyframes pasCHcGE_draw_15{14.035087719298245%{stroke-dashoffset: 161}66.66666666666666%{ stroke-dashoffset: 0;}100%{ stroke-dashoffset: 0;}}@keyframes pasCHcGE_draw_16{14.035087719298245%{stroke-dashoffset: 96}66.66666666666666%{ stroke-dashoffset: 0;}100%{ stroke-dashoffset: 0;}}@keyframes pasCHcGE_draw_17{14.035087719298245%{stroke-dashoffset: 96}66.66666666666666%{ stroke-dashoffset: 0;}100%{ stroke-dashoffset: 0;}}@keyframes pasCHcGE_draw_18{14.035087719298245%{stroke-dashoffset: 692}66.66666666666666%{ stroke-dashoffset: 0;}100%{ stroke-dashoffset: 0;}}@keyframes pasCHcGE_draw_19{14.035087719298245%{stroke-dashoffset: 1552}66.66666666666666%{ stroke-dashoffset: 0;}100%{ stroke-dashoffset: 0;}}@keyframes pasCHcGE_draw_20{14.035087719298245%{stroke-dashoffset: 501}66.66666666666666%{ stroke-dashoffset: 0;}100%{ stroke-dashoffset: 0;}}@keyframes pasCHcGE_draw_21{14.035087719298245%{stroke-dashoffset: 1232}66.66666666666666%{ stroke-dashoffset: 0;}100%{ stroke-dashoffset: 0;}}@keyframes pasCHcGE_draw_22{14.035087719298245%{stroke-dashoffset: 692}66.66666666666666%{ stroke-dashoffset: 0;}100%{ stroke-dashoffset: 0;}}@keyframes pasCHcGE_draw_23{14.035087719298245%{stroke-dashoffset: 1552}66.66666666666666%{ stroke-dashoffset: 0;}100%{ stroke-dashoffset: 0;}}@keyframes pasCHcGE_draw_24{14.035087719298245%{stroke-dashoffset: 501}66.66666666666666%{ stroke-dashoffset: 0;}100%{ stroke-dashoffset: 0;}}@keyframes pasCHcGE_draw_25{14.035087719298245%{stroke-dashoffset: 1232}66.66666666666666%{ stroke-dashoffset: 0;}100%{ stroke-dashoffset: 0;}}</style></svg>